<?xml version="1.0" encoding="UTF-8" standalone="no"?><svg xmlns="http://www.w3.org/2000/svg" xmlns:xlink="http://www.w3.org/1999/xlink" contentScriptType="application/ecmascript" contentStyleType="text/css" height="362px" preserveAspectRatio="none" style="width:390px;height:362px;" version="1.1" viewBox="0 0 390 362" width="390px" zoomAndPan="magnify"><defs><filter height="300%" id="ffffhv76f96ww" width="300%" x="-1" y="-1"><feGaussianBlur result="blurOut" stdDeviation="2.0"/><feColorMatrix in="blurOut" result="blurOut2" type="matrix" values="0 0 0 0 0 0 0 0 0 0 0 0 0 0 0 0 0 0 .4 0"/><feOffset dx="4.0" dy="4.0" in="blurOut2" result="blurOut3"/><feBlend in="SourceGraphic" in2="blurOut3" mode="normal"/></filter></defs><g><!--entity client--><rect fill="#FEFECE" filter="url(#ffffhv76f96ww)" height="36.2969" style="stroke: #000000; stroke-width: 1.5;" width="59" x="6" y="121"/><text fill="#000000" font-family="sans-serif" font-size="14" lengthAdjust="spacingAndGlyphs" textLength="39" x="16" y="143.9951">Client</text><!--entity edge--><rect fill="#ADD8E6" filter="url(#ffffhv76f96ww)" height="36.2969" style="stroke: #000000; stroke-width: 1.5;" width="81" x="152" y="121"/><text fill="#000000" font-family="sans-serif" font-size="14" lengthAdjust="spacingAndGlyphs" textLength="61" x="162" y="143.9951">API Edge</text><!--entity internal--><rect fill="#FEFECE" filter="url(#ffffhv76f96ww)" height="36.2969" style="stroke: #000000; stroke-width: 1.5;" width="132" x="126.5" y="218"/><text fill="#000000" font-family="sans-serif" font-size="14" lengthAdjust="spacingAndGlyphs" textLength="112" x="136.5" y="240.9951">Location Service</text><!--entity internal2--><rect fill="#FEFECE" filter="url(#ffffhv76f96ww)" height="36.2969" style="stroke: #000000; stroke-width: 1.5;" width="121" x="132" y="315"/><text fill="#000000" font-family="sans-serif" font-size="14" lengthAdjust="spacingAndGlyphs" textLength="101" x="142" y="337.9951">Device Service</text><!--entity internal3--><rect fill="#FEFECE" filter="url(#ffffhv76f96ww)" height="36.2969" style="stroke: #000000; stroke-width: 1.5;" width="111" x="268" y="121"/><text fill="#000000" font-family="sans-serif" font-size="14" lengthAdjust="spacingAndGlyphs" textLength="91" x="278" y="143.9951">State System</text><!--entity auth--><rect fill="#FEFECE" filter="url(#ffffhv76f96ww)" height="36.2969" style="stroke: #000000; stroke-width: 1.5;" width="100" x="142.5" y="8"/><text fill="#000000" font-family="sans-serif" font-size="14" lengthAdjust="spacingAndGlyphs" textLength="80" x="152.5" y="30.9951">Auth Server</text><!--link client to edge--><path d="M65.0305,139 C88.0143,139 120.3231,139 146.6617,139 " fill="none" id="client-edge" style="stroke: #0000FF; stroke-width: 2.0;"/><polygon fill="#0000FF" points="151.8453,139,142.8453,135,146.8453,139,142.8453,143,151.8453,139" style="stroke: #0000FF; stroke-width: 1.0;"/><text fill="#000000" font-family="sans-serif" font-size="13" lengthAdjust="spacingAndGlyphs" textLength="50" x="83.5" y="117.0669">Opaque</text><text fill="#000000" font-family="sans-serif" font-size="13" lengthAdjust="spacingAndGlyphs" textLength="38" x="89.5" y="132.1997">Token</text><!--link edge to internal--><path d="M192.5,157.245 C192.5,172.9612 192.5,195.7346 192.5,212.7539 " fill="none" id="edge-internal" style="stroke: #008000; stroke-width: 2.0;"/><polygon fill="#008000" points="192.5,217.8369,196.5,208.8369,192.5,212.8369,188.5,208.8369,192.5,217.8369" style="stroke: #008000; stroke-width: 1.0;"/><!--link internal to internal2--><path d="M192.5,254.245 C192.5,269.9612 192.5,292.7346 192.5,309.7539 " fill="none" id="internal-internal2" style="stroke: #008000; stroke-width: 2.0;"/><polygon fill="#008000" points="192.5,314.8369,196.5,305.8369,192.5,309.8369,188.5,305.8369,192.5,314.8369" style="stroke: #008000; stroke-width: 1.0;"/><!--link edge to internal3--><path d="M233.1816,139 C242.9959,139 252.8102,139 262.6244,139 " fill="none" id="edge-internal3" style="stroke: #008000; stroke-width: 2.0;"/><polygon fill="#008000" points="267.7566,139,258.7566,135,262.7566,139,258.7566,143,267.7566,139" style="stroke: #008000; stroke-width: 1.0;"/><!--link auth to edge--><path d="M192.5,49.3319 C192.5,70.563 192.5,101.4678 192.5,120.8897 " fill="none" id="auth-edge" style="stroke: #A80036; stroke-width: 1.0;"/><polygon fill="#A80036" points="192.5,44.1554,188.5,53.1554,192.5,49.1554,196.5,53.1554,192.5,44.1554" style="stroke: #A80036; stroke-width: 1.0;"/><text fill="#000000" font-family="sans-serif" font-size="13" lengthAdjust="spacingAndGlyphs" textLength="39" x="193.5" y="87.0669">Check</text><!--
@startuml
  rectangle client as "Client"
  rectangle edge as "API Edge" #lightblue
  rectangle internal as "Location Service"
  rectangle internal2 as "Device Service"
  rectangle internal3 as "State System"
  rectangle auth as "Auth Server"

  client -[#blue,bold]> edge: Opaque\nToken
  edge -[#green,bold]down-> internal
  internal -[#green,bold]-> internal2
  edge -[#green,bold]right-> internal3

  edge -up-> auth: Check



@enduml

PlantUML version 1.2018.13(Mon Nov 26 11:11:51 CST 2018)
(APACHE source distribution)
Java Runtime: OpenJDK Runtime Environment
JVM: OpenJDK 64-Bit Server VM
Java Version: 1.8.0_202-b05
Operating System: Linux
OS Version: 5.1.1-2-MANJARO
Default Encoding: UTF-8
Language: en
Country: US
--></g></svg>