<?xml version="1.0" encoding="UTF-8" standalone="no"?><svg xmlns="http://www.w3.org/2000/svg" xmlns:xlink="http://www.w3.org/1999/xlink" contentScriptType="application/ecmascript" contentStyleType="text/css" height="280px" preserveAspectRatio="none" style="width:388px;height:280px;" version="1.1" viewBox="0 0 388 280" width="388px" zoomAndPan="magnify"><defs><filter height="300%" id="ffn8q95w13352" width="300%" x="-1" y="-1"><feGaussianBlur result="blurOut" stdDeviation="2.0"/><feColorMatrix in="blurOut" result="blurOut2" type="matrix" values="0 0 0 0 0 0 0 0 0 0 0 0 0 0 0 0 0 0 .4 0"/><feOffset dx="4.0" dy="4.0" in="blurOut2" result="blurOut3"/><feBlend in="SourceGraphic" in2="blurOut3" mode="normal"/></filter></defs><g><!--entity resource--><rect fill="#FEFECE" filter="url(#ffn8q95w13352)" height="36.2969" style="stroke: #000000; stroke-width: 1.5;" width="135" x="101.5" y="8"/><text fill="#000000" font-family="sans-serif" font-size="14" lengthAdjust="spacingAndGlyphs" textLength="115" x="111.5" y="30.9951">Resource Server</text><!--entity authEdge--><rect fill="#FEFECE" filter="url(#ffn8q95w13352)" height="36.2969" style="stroke: #000000; stroke-width: 1.5;" width="100" x="33" y="233"/><text fill="#000000" font-family="sans-serif" font-size="14" lengthAdjust="spacingAndGlyphs" textLength="80" x="43" y="255.9951">Auth Server</text><!--entity legacy--><rect fill="#FEFECE" filter="url(#ffn8q95w13352)" height="36.2969" style="stroke: #000000; stroke-width: 1.5;" width="170" x="6" y="136"/><text fill="#000000" font-family="sans-serif" font-size="14" lengthAdjust="spacingAndGlyphs" textLength="150" x="16" y="158.9951">Legacy Token Service</text><!--entity fresh--><rect fill="#FEFECE" filter="url(#ffn8q95w13352)" height="36.2969" style="stroke: #000000; stroke-width: 1.5;" width="161" x="168.5" y="233"/><text fill="#000000" font-family="sans-serif" font-size="14" lengthAdjust="spacingAndGlyphs" textLength="141" x="178.5" y="255.9951">Fresh Token Service</text><!--link resource to legacy--><path d="M138.7505,44.0024 C127.8524,51.9137 116.4246,62.1229 109,74 C98.2632,91.1756 93.901,113.9711 92.1441,130.8341 " fill="none" id="resource-legacy" style="stroke: #0000FF; stroke-width: 2.0;"/><polygon fill="#0000FF" points="91.6783,135.8642,96.4913,127.2715,92.1394,130.8855,88.5254,126.5336,91.6783,135.8642" style="stroke: #0000FF; stroke-width: 1.0;"/><text fill="#000000" font-family="sans-serif" font-size="13" lengthAdjust="spacingAndGlyphs" textLength="81" x="124.5" y="87.0669">Check Token</text><text fill="#000000" font-family="sans-serif" font-size="13" font-weight="bold" lengthAdjust="spacingAndGlyphs" textLength="110" x="110" y="102.1997">leg:3234-234-2</text><!--link resource to fresh--><path d="M197.7565,44.0734 C207.9963,51.994 218.5721,62.1909 225,74 C251.9492,123.5099 252.7277,191.9506 250.9137,227.4759 " fill="none" id="resource-fresh" style="stroke: #008000; stroke-width: 2.0;"/><polygon fill="#008000" points="250.6039,232.887,255.1119,224.1304,250.8898,227.8952,247.125,223.673,250.6039,232.887" style="stroke: #008000; stroke-width: 1.0;"/><text fill="#000000" font-family="sans-serif" font-size="13" lengthAdjust="spacingAndGlyphs" textLength="81" x="273" y="151.0669">Check Token</text><text fill="#000000" font-family="sans-serif" font-size="13" font-weight="bold" lengthAdjust="spacingAndGlyphs" textLength="125" x="251" y="166.1997">fresh:3234-234-2</text><!--link authEdge to fresh--><path d="M133.2539,251 C143.1361,251 153.0182,251 162.9004,251 " fill="none" id="authEdge-fresh" style="stroke: #A80036; stroke-width: 1.0;"/><polygon fill="#A80036" points="168.0682,251,159.0682,247,163.0682,251,159.0682,255,168.0682,251" style="stroke: #A80036; stroke-width: 1.0;"/><!--link legacy to authEdge--><path d="M89.0755,177.3348 C87.6702,194.374 85.7922,217.1452 84.498,232.8369 " fill="none" id="legacy-authEdge" style="stroke: #A80036; stroke-width: 1.0;"/><polygon fill="#A80036" points="89.4953,172.245,84.769,180.8857,89.0843,177.2281,92.742,181.5433,89.4953,172.245" style="stroke: #A80036; stroke-width: 1.0;"/><!--
@startuml
  rectangle resource as "Resource Server"
  rectangle authEdge as "Auth Server"
  rectangle legacy as "Legacy Token Service"
  rectangle fresh as "Fresh Token Service"

  resource -[#blue,bold]-> legacy: Check Token\n<b>leg:3234-234-2</b>

  resource -[#green,bold]-> fresh: Check Token\n<b>fresh:3234-234-2</b>

  authEdge -> fresh
  authEdge -up-> legacy

@enduml

PlantUML version 1.2018.13(Mon Nov 26 11:11:51 CST 2018)
(APACHE source distribution)
Java Runtime: OpenJDK Runtime Environment
JVM: OpenJDK 64-Bit Server VM
Java Version: 1.8.0_202-b05
Operating System: Linux
OS Version: 5.1.1-2-MANJARO
Default Encoding: UTF-8
Language: en
Country: US
--></g></svg>